<?xml version="1.0" standalone="no"?>
<!DOCTYPE svg PUBLIC "-//W3C//DTD SVG 20010904//EN"
 "http://www.w3.org/TR/2001/REC-SVG-20010904/DTD/svg10.dtd">
<svg version="1.0" xmlns="http://www.w3.org/2000/svg"
 width="300.000000pt" height="87.000000pt" viewBox="0 0 300.000000 87.000000"
 preserveAspectRatio="xMidYMid meet">
<metadata>
Created by potrace 1.10, written by Peter Selinger 2001-2011
</metadata>
<g transform="translate(0.000000,87.000000) scale(0.100000,-0.100000)"
fill="#000000" stroke="none">
<path d="M890 812 c0 -6 -13 -15 -29 -20 -16 -6 -44 -23 -61 -39 -18 -15 -37
-27 -42 -25 -5 1 -7 -2 -4 -7 4 -5 -7 -22 -22 -38 -21 -20 -27 -34 -22 -48 7
-19 7 -19 14 3 4 13 10 21 13 19 2 -3 -2 -18 -11 -35 -8 -16 -14 -31 -13 -33
1 -2 -4 2 -10 10 -11 13 -13 13 -13 -1 0 -9 6 -23 14 -30 10 -10 11 -20 4 -31
-5 -10 -6 -22 -3 -27 3 -6 2 -10 -4 -10 -6 0 -8 -7 -5 -15 4 -8 1 -15 -5 -15
-13 0 -14 6 -1 49 7 25 6 37 -5 47 -19 20 -25 17 -25 -11 0 -14 -4 -25 -10
-25 -5 0 -10 -9 -10 -20 0 -11 4 -20 9 -20 5 0 11 -20 13 -45 2 -33 0 -45 -11
-45 -11 0 -11 -3 0 -17 11 -13 11 -17 2 -20 -7 -3 -13 -9 -13 -15 0 -6 8 -7
17 -4 9 4 20 1 25 -6 11 -18 10 -30 -1 -23 -5 3 -12 2 -14 -2 -7 -12 20 -46
31 -39 10 6 82 -76 82 -94 0 -6 5 -8 10 -5 6 4 17 2 24 -4 7 -6 21 -12 32 -14
10 -2 30 -8 44 -14 62 -25 128 -34 181 -25 29 6 59 8 66 5 7 -3 13 0 13 6 0 6
7 11 15 11 19 0 65 21 65 30 0 4 18 26 40 49 41 43 70 98 70 132 0 11 6 28 12
39 10 16 10 23 -4 36 -10 10 -23 14 -34 10 -12 -5 -14 -10 -7 -17 7 -7 8 -23
1 -47 -15 -60 -30 -84 -84 -139 -28 -29 -48 -56 -45 -59 3 -4 -4 -3 -16 0 -23
7 -69 -15 -56 -27 3 -4 -1 -7 -11 -7 -9 0 -14 5 -11 10 8 12 -17 13 -30 1 -6
-4 -27 -11 -48 -14 -28 -4 -39 -2 -44 9 -3 8 -12 13 -20 9 -32 -11 -89 15
-136 64 -27 27 -46 55 -42 60 3 6 -1 11 -9 11 -14 0 -46 36 -46 52 0 3 9 10
20 13 22 7 27 31 8 38 -8 3 -6 6 5 6 9 1 17 5 17 11 0 5 -7 7 -15 4 -15 -6
-21 16 -8 30 4 4 8 23 10 41 1 19 9 50 18 69 9 19 14 39 11 45 -6 10 11 25 29
26 6 0 9 8 7 18 -2 11 4 17 15 17 21 0 67 34 69 49 1 6 2 16 3 21 0 6 6 10 13
10 6 0 20 7 30 17 10 9 18 11 18 5 0 -6 -12 -20 -26 -31 -15 -12 -22 -21 -17
-21 5 0 14 5 19 10 14 14 166 16 190 2 10 -6 13 -12 6 -12 -7 0 -10 -5 -7 -10
4 -6 16 -8 27 -4 14 4 18 2 14 -5 -4 -7 1 -11 13 -11 14 0 21 -6 21 -20 0 -11
5 -20 12 -20 6 0 21 -8 32 -17 12 -10 8 -2 -9 16 -16 19 -23 30 -15 26 19 -11
46 -48 42 -59 -1 -4 3 -14 9 -22 9 -11 15 -11 25 -3 19 15 47 -7 39 -32 -3 -9
-1 -20 5 -24 5 -3 10 -19 10 -36 0 -16 5 -29 10 -29 6 0 10 24 9 58 -2 41 -7
60 -19 69 -10 7 -20 23 -24 36 -7 30 -129 157 -150 157 -9 0 -16 4 -16 9 0 10
-58 19 -182 27 -56 4 -88 2 -88 -4z m85 -22 c3 -5 -3 -10 -14 -10 -64 0 -201
-81 -201 -118 0 -11 11 -6 36 19 43 40 34 19 -14 -36 -31 -34 -55 -43 -36 -14
4 7 8 23 9 35 1 43 48 79 150 115 59 22 62 22 70 9z m173 -23 c26 -15 60 -69
37 -60 -8 2 -21 15 -29 29 -9 13 -31 28 -49 33 -28 8 -29 9 -7 10 14 0 35 -5
48 -12z"/>
<path d="M255 761 c-22 -5 -45 -6 -52 -4 -14 6 -53 -17 -93 -54 -14 -13 -29
-23 -34 -23 -4 0 -6 -11 -4 -24 4 -18 1 -23 -10 -18 -11 4 -13 2 -7 -8 5 -8 7
-82 6 -165 -2 -139 -1 -156 20 -199 43 -91 123 -136 246 -136 56 0 85 6 125
24 92 42 158 141 116 173 -22 17 -103 43 -131 43 -15 0 -27 -6 -27 -12 -1 -7
-9 -24 -20 -36 -15 -18 -30 -24 -64 -24 -72 -2 -76 6 -76 150 0 139 5 151 67
152 46 0 60 -8 84 -47 20 -32 25 -34 57 -28 19 3 42 10 51 15 9 4 28 13 44 21
20 9 27 20 27 41 0 15 -4 28 -10 28 -5 0 -10 6 -10 13 0 20 -69 86 -108 103
-45 18 -143 26 -197 15z m201 -35 c36 -17 59 -37 82 -71 18 -27 32 -54 32 -61
0 -7 -24 -21 -52 -32 -29 -11 -61 -23 -70 -27 -12 -5 -21 2 -33 25 -31 60
-121 75 -165 27 -18 -18 -20 -35 -20 -138 0 -146 10 -164 90 -164 44 0 55 4
75 27 13 15 25 33 27 40 4 10 16 9 59 -4 78 -25 93 -37 80 -70 -16 -43 -68
-95 -114 -113 -63 -26 -199 -25 -252 3 -96 49 -125 113 -125 276 0 125 11 176
47 224 47 63 91 79 213 81 59 1 86 -4 126 -23z"/>
<path d="M1416 735 c-3 -9 -6 -142 -6 -295 0 -276 0 -279 22 -291 14 -8 68
-10 172 -6 127 4 158 8 192 25 98 50 139 144 131 302 -3 52 -10 111 -16 130
-14 45 -55 92 -106 121 -37 22 -54 24 -211 27 -152 3 -172 2 -178 -13z m384
-25 c24 -14 58 -45 75 -68 29 -42 30 -49 33 -166 3 -72 -1 -139 -8 -164 -15
-58 -70 -117 -128 -137 -51 -18 -271 -33 -316 -21 l-26 6 0 291 0 291 163 -4
c151 -3 165 -5 207 -28z"/>
<path d="M1580 445 l0 -155 44 0 c107 0 131 30 131 167 0 91 -1 96 -28 119
-23 20 -39 24 -88 24 l-59 0 0 -155z m124 134 c13 -6 27 -21 30 -33 8 -28 7
-165 0 -194 -8 -29 -52 -52 -99 -52 l-35 0 0 145 0 145 40 0 c21 0 50 -5 64
-11z"/>
<path d="M1966 734 c-3 -9 -6 -141 -6 -294 0 -273 0 -280 21 -290 21 -12 352
-15 395 -4 27 7 39 60 29 118 l-7 36 -129 0 -129 0 0 35 0 35 93 0 c50 0 99 5
107 10 10 6 15 26 15 62 0 88 0 88 -115 88 l-100 0 0 30 0 30 118 0 c78 0 122
4 130 12 7 7 12 37 12 68 0 31 -5 61 -12 68 -9 9 -70 12 -214 12 -175 0 -203
-2 -208 -16z m412 -61 l-3 -68 -122 -3 -123 -3 0 -39 0 -39 103 -3 102 -3 3
-59 c2 -41 -1 -62 -10 -67 -7 -5 -55 -9 -105 -9 l-93 0 0 -45 0 -44 128 -3
127 -3 3 -53 c2 -31 -2 -60 -9 -68 -9 -11 -49 -14 -194 -14 -101 0 -190 3
-199 6 -14 5 -16 40 -16 288 0 156 3 286 7 289 3 4 96 7 205 7 l199 0 -3 -67z"/>
<path d="M2453 739 c-16 -16 -18 -555 -3 -579 8 -12 39 -15 174 -15 119 0 169
4 178 13 6 6 20 12 29 12 9 0 37 20 62 44 53 51 67 100 67 237 0 115 -14 168
-56 218 -60 69 -78 75 -269 79 -128 2 -173 0 -182 -9z m367 -23 c49 -26 79
-55 101 -98 16 -31 19 -59 19 -171 0 -121 -2 -138 -23 -178 -26 -48 -69 -83
-126 -100 -44 -13 -269 -24 -305 -15 l-26 6 0 291 0 291 163 -4 c134 -3 168
-6 197 -22z"/>
<path d="M2612 448 l3 -153 63 1 c86 1 100 16 108 115 13 151 -9 189 -111 189
l-66 0 3 -152z m128 127 l30 -16 0 -109 0 -110 -32 -20 c-22 -13 -46 -19 -71
-18 l-38 3 0 138 c0 75 1 139 1 142 0 11 83 4 110 -10z"/>
<path d="M758 365 c-11 -11 5 -55 22 -60 16 -5 29 -29 34 -59 0 -5 17 -14 35
-21 22 -7 31 -14 23 -19 -25 -15 -1 -24 28 -9 37 18 39 33 5 33 -14 0 -24 5
-23 11 2 7 -12 16 -29 21 -23 6 -33 15 -33 28 0 11 -3 20 -8 20 -4 0 -13 14
-20 30 -13 29 -23 36 -34 25z"/>
<path d="M698 245 c-9 -10 16 -55 28 -51 6 3 17 -1 23 -7 6 -6 14 -7 18 -3 9
9 -18 27 -33 22 -6 -2 -10 5 -10 16 1 21 -15 34 -26 23z"/>
<path d="M940 202 c0 -16 28 -34 47 -30 31 6 21 31 -14 35 -18 2 -33 0 -33 -5z"/>
<path d="M784 149 c-17 -28 102 -79 183 -79 27 0 42 4 38 10 -3 6 -1 10 4 10
6 0 11 -4 11 -10 0 -5 17 -9 38 -9 30 2 32 3 9 6 -43 7 -21 23 31 23 28 0 42
4 37 9 -11 10 -124 -6 -140 -20 -12 -11 -72 -12 -79 -1 -3 5 8 9 25 10 17 0
34 4 38 8 3 4 -23 4 -59 1 -46 -5 -70 -3 -82 7 -10 7 -15 16 -11 19 3 4 -4 7
-16 7 -12 0 -19 4 -16 10 3 6 4 10 1 10 -3 0 -8 -5 -12 -11z"/>
</g>
</svg>
